<?xml version="1.0" standalone="no"?>
<svg viewBox="0 0 200 200" xmlns="http://www.w3.org/2000/svg">
  <path fill="#D0E2FF" d="M35.7,-51.7C44.8,-42.4,49.9,-30.1,55.5,-17.1C61.1,-4,67.1,9.9,66.9,25.1C66.6,40.3,59.9,56.8,47.7,63.4C35.5,70,17.8,66.6,0.3,66.2C-17.1,65.7,-34.2,68.1,-42.5,60.3C-50.8,52.4,-50.5,34.4,-54.5,18.5C-58.5,2.7,-66.9,-10.9,-66.5,-24.5C-66.1,-38.1,-56.8,-51.7,-44.2,-59.8C-31.6,-68,-15.8,-70.6,-1.3,-68.9C13.2,-67.1,26.5,-60.9,35.7,-51.7Z" transform="translate(100 100)" />
</svg>
